#!OML:ASF H:\BabyWalks\Project 1\Capture day 1\Session 1\baby.ASF
:FULLY-SPECIFIED
:DEGREES
748
root 2.36091 19.5477 -0.0296077 -238.226 93.7853 -247.652
lowerback 19.2015 -0.0949716 1.41584
upperback 3.70808 0.413907 0.527472
thorax -6.73487 0.267044 -0.352134
lowerneck -5.13862 -0.067052 4.28447
upperneck 7.50144 0.408193 -9.40774
head 3.08816 -0.020483 -3.53852
rclavicle 7.95139e-015 7.7526e-015
rhumerus -22.7124 21.6482 -67.3111
rradius 67.0186
rwrist -11.0505
rhand -25.0553 -19.6115
rfingers 7.12502
rthumb 1.45818 -49.5863
lclavicle 7.95139e-015 7.7526e-015
lhumerus -15.7453 -8.58817 62.378
lradius 88.7821
lwrist 0.511683
lhand -10.8495 0.441357
lfingers 7.12502
lthumb 15.1655 29.8656
rfemur -3.06364 5.40187 20.9261
rtibia 33.939
rfoot 14.5704 0.585454
rtoes -13.1916
lfemur -5.62526 -7.43902 -9.8256
ltibia 31.3255
lfoot 11.7895 -13.4349
ltoes -27.0067
749
root 2.57183 19.8101 0.000470012 -240.303 93.3975 -249.424
lowerback 18.8571 -0.166801 1.29795
upperback 3.83012 0.282501 0.405425
thorax -6.42083 0.208558 -0.382348
lowerneck -5.09384 -0.10555 4.31693
upperneck 7.82543 0.400267 -9.58999
head 3.17663 -0.0322896 -3.60294
rclavicle 1.88845e-015 1.72943e-014
rhumerus -22.6382 20.3916 -67.7613
rradius 66.6208
rwrist -10.8036
rhand -25.8093 -19.5016
rfingers 7.12502
rthumb 0.729925 -49.4801
lclavicle 1.88845e-015 1.72943e-014
lhumerus -15.6313 -8.25104 63.0118
lradius 88.3852
lwrist 0.418749
lhand -10.3062 0.680159
lfingers 7.12502
lthumb 15.6888 30.0641
rfemur -3.38239 5.95785 20.3622
rtibia 36.4441
rfoot 14.8521 0.306337
rtoes -12.9028
lfemur -5.31844 -7.44498 -9.8591
ltibia 31.4477
lfoot 13.6257 -13.7247
ltoes -24.8994
750
root 2.7664 20.0701 0.03355 -242.357 92.9662 -251.311
lowerback 18.6057 -0.216784 1.07411
upperback 3.96102 0.163858 0.278937
thorax -6.14742 0.157899 -0.361314
lowerneck -4.82585 -0.144415 4.35887
upperneck 7.54951 0.347116 -9.77058
head 3.04573 -0.0520154 -3.66389
rclavicle -6.26172e-015 -2.22639e-014
rhumerus -22.4923 19.12 -68.1833
rradius 66.2898
rwrist -10.4578
rhand -26.7617 -19.2993
rfingers 7.12502
rthumb -0.18996 -49.279
lclavicle -6.26172e-015 -2.22639e-014
lhumerus -15.4639 -8.0158 63.5845
lradius 88.0016
lwrist -0.163503
lhand -9.92486 0.826665
lfingers 7.12502
lthumb 16.056 30.1814
rfemur -4.19114 6.37535 19.7143
rtibia 39.6916
rfoot 14.8151 0.399918
rtoes -12.6927
lfemur -5.48264 -7.39287 -9.8935
ltibia 32.3055
lfoot 14.7587 -14.0499
ltoes -22.5184
751
root 2.94453 20.3247 0.0691456 -244.663 92.5029 -253.576
lowerback 18.4682 -0.250052 0.75354
upperback 4.08971 0.054375 0.160263
thorax -5.93718 0.112679 -0.279989
lowerneck -4.37408 -0.180529 4.38452
upperneck 6.77797 0.260427 -9.94475
head 2.73468 -0.0756013 -3.71614
rclavicle 3.27995e-015 7.55382e-015
rhumerus -22.2782 17.8502 -68.5734
rradius 65.9935
rwrist -9.97961
rhand -27.8222 -19.0291
rfingers 7.12502
rthumb -1.21422 -49.0054
lclavicle 3.27995e-015 7.55382e-015
lhumerus -15.2716 -7.84751 64.1162
lradius 87.6115
lwrist -1.15928
lhand -9.69508 0.855856
lfingers 7.12502
lthumb 16.2773 30.1926
rfemur -5.4414 6.65917 18.979
rtibia 43.4833
rfoot 14.6971 0.888211
rtoes -12.5778
lfemur -6.1345 -7.29067 -9.91258
ltibia 33.9186
lfoot 15.4396 -14.3888
ltoes -19.8577
752
root 3.10775 20.5715 0.106706 -247.654 92.013 -256.631
lowerback 18.4553 -0.270678 0.348367
upperback 4.21451 -0.0491875 0.0552502
thorax -5.79675 0.0711357 -0.137911
lowerneck -3.84911 -0.20934 4.41777
upperneck 5.50298 0.127488 -9.83903
head 2.50251 -0.0848332 -4.08157
rclavicle 2.28602e-015 0
rhumerus -21.9995 16.5964 -68.9253
rradius 65.6988
rwrist -9.34682
rhand -28.9225 -18.7433
rfingers 7.12502
rthumb -2.27685 -48.7109
lclavicle 2.28602e-015 0
lhumerus -15.071 -7.71069 64.6225
lradius 87.207
lwrist -2.41206
lhand -9.59758 0.773457
lfingers 7.12502
lthumb 16.3711 30.1025
rfemur -7.05591 6.84081 18.1471
rtibia 47.6057
rfoot 14.6122 1.7551
rtoes -12.144
lfemur -7.25113 -7.13891 -9.91312
ltibia 36.2528
lfoot 15.7647 -14.7547
ltoes -17.1575
753
root 3.25792 20.8083 0.145595 -252.537 91.5173 -261.647
lowerback 18.5823 -0.278956 -0.101751
upperback 4.33612 -0.141244 -0.0373286
thorax -5.73291 0.035807 0.040207
lowerneck -3.3036 -0.241297 4.372
upperneck 4.29942 0.0162741 -10.0083
head 1.99135 -0.113071 -4.10528
rclavicle -3.97569e-015 -1.21259e-014
rhumerus -21.6871 15.3595 -69.2449
rradius 65.3843
rwrist -8.58849
rhand -30.0098 -18.5032
rfingers 7.12502
rthumb -3.32695 -48.457
lclavicle -3.97569e-015 -1.21259e-014
lhumerus -14.8678 -7.60665 65.1047
lradius 86.7919
lwrist -3.71033
lhand -9.59653 0.632399
lfingers 7.12502
lthumb 16.3721 29.9614
rfemur -8.93335 6.93418 17.2396
rtibia 51.8401
rfoot 14.5081 2.95506
rtoes -11.5607
lfemur -8.77168 -6.93758 -9.87945
ltibia 39.221
lfoot 15.8044 -15.2025
ltoes -14.547
